<?xml version="1.0" encoding="utf-8"?>
<svg version="1.1" id="Layer_1" xmlns="http://www.w3.org/2000/svg" xmlns:xlink="http://www.w3.org/1999/xlink" x="0px" y="0px"
	 viewBox="0 0 317.7 114.9" style="enable-background:new 0 0 317.7 114.9;" xml:space="preserve">
<style type="text/css">
	.st0{fill:#282C3B;}
	.st1{fill:#00AE5D;}
</style>
<g id="Layer_x0020_1">
	<g id="_1810319145280">
		<path class="st0" d="M291.8,48.6c13.1,0,11.9,5.3,14.3,10.3h-26.3C281.9,54.7,283.2,48.6,291.8,48.6z M267.9,63.8
			c0,35.1,38.3,32.6,46.2,20.7c-0.6-2.6-0.8-2.3-2-4.4c-5.3-9.1-3.6,1.2-18.7,1.2c-7.4,0-13.5-6.1-13.5-13.5H315
			c5,0,2.9-16.1-4.5-23.4C296.1,30.6,267.9,40.6,267.9,63.8z"/>
		<path class="st0" d="M132.3,81.3c-19.2,0-21.5-31.9,0.8-31.9c8.3,0,14.1,8,14.1,15.9C147.3,73.4,140.9,81.3,132.3,81.3z M106,61.4
			c0,9.2-0.1,16,8.2,23.7c10.9,10.3,26.9,9.3,36.2-0.1l5.6-7.9c4.8-10.4,3-22.3-4.7-30.7c-12.4-13.4-34.4-9.8-42.3,5.9
			C107.5,55.1,106,57.6,106,61.4z"/>
		<path class="st0" d="M235.2,27.1v12l-8,0.8c0,10.1-0.8,9.6,8,9.6c0,23-4.1,43.1,14.3,43.1c3.9,0,15.1-2.8,15.1-5.6
			c0-2.9-2.1-6.7-3.2-8.8c-7.1,1.7-5,4.4-13.5,2.4c-1.7-7.4-0.8-22.8-0.8-31.1c16.8,0,15.9,1.4,15.9-7.2c0-4.7-7.6-3.2-15.9-3.2
			c0-18.3,1.7-16.7-8.8-16.7C235.9,22.3,235.2,24.7,235.2,27.1z"/>
		<path class="st0" d="M164.2,52.6c0,6.8,4.3,11.1,9.8,14.1c7.2,3.9,14.9,5.4,14.9,11.4c0,8.9-19.1,0-22.3,0
			c-0.7,3.2-1.8,3.6-2.4,5.6c-1.1,3.7,2.2,4.8,7.4,6.9c11.8,4.6,29.2,0.9,29.2-14.1c0-16-25.5-16.1-25.5-23.9
			c0-8.1,17.9-1.6,19.1-1.6c1.5,0,4-4.7,4-6.4C198.5,37.6,164.2,31.8,164.2,52.6z"/>
		<path class="st0" d="M1.6,42.3c0,9.9-0.9,8.8,11.2,8.8v44.6c0,9.9-11.2,5.6-11.2,10.4c0,9.7-0.9,8.8,5.6,8.8
			c8.8,0,17.5-9.5,17.5-18.3V42.3c0-5-9.7-3.2-19.9-3.2C2.9,39.1,1.6,40.4,1.6,42.3z"/>
		<path class="st0" d="M54.2,41.5c0,2.7,10.1,23.4,11.5,26c6.5,12.9,12.1,34.6,17.6,20.6c3.3-8.5,21.1-43.8,21.1-46.6
			c0-3.2-2.2-2.4-8-2.4c-3.7,0-6.6,9.8-9.3,15.4l-7.5,17.3c-0.7-0.9,0,0.3-1-1.4L71.8,55c-1.3-2.9-2.2-5.2-3.5-8.4
			c-3.6-8.7-3.1-7.5-11.6-7.5C54.8,39.1,54.2,39.6,54.2,41.5z"/>
		<path class="st0" d="M208.9,42.3v46.2c0,3.3,2.5,2.4,8.8,2.4c2.4,0,3.2-2.3,3.2-4.8c0-9.9,1-38.5-0.8-46.3
			C217.2,39.2,208.9,37.2,208.9,42.3z"/>
		<path class="st0" d="M36.7,39.9v39.9c0,12.1-2,11.1,8.8,11.1c1.8,0,2.4-0.5,2.4-2.4V42.3C47.8,37.2,38.4,39.2,36.7,39.9z"/>
		<path class="st1" d="M0,3.2c0,10.9,4.8,21.3,13.3,26.6c3.1,2,5.2,3.6,9.8,3.7c0-8.6-2.3-17-5.7-22.2C14.1,6.3,7.8,0.2,0,0V3.2z"/>
	</g>
</g>
</svg>
